# Blender 3.5.1
# www.blender.org
mtllib Janela de madeira escura.mtl
o Cube.007
v -0.041067 -0.343249 0.457687
v -0.041067 -0.343249 0.516813
v -0.041067 0.331919 0.457687
v -0.041067 0.331919 0.516813
v 0.035356 -0.343249 0.457687
v 0.035356 -0.343249 0.516813
v 0.035356 0.331919 0.457687
v 0.035356 0.331919 0.516813
v 0.029838 0.382911 -0.500571
v 0.029838 -0.367089 -0.500571
v 0.029838 0.382911 0.499429
v 0.029838 -0.367089 0.499429
v -0.026032 0.382911 -0.500571
v -0.026032 -0.367089 -0.500571
v -0.026032 0.382911 0.499429
v -0.026032 -0.367089 0.499429
v -0.043125 0.300403 0.513613
v -0.043125 0.390460 0.513613
v -0.043125 0.300403 -0.514755
v -0.043125 0.390460 -0.514755
v 0.046932 0.300403 0.513613
v 0.046932 0.390460 0.513613
v 0.046932 0.300403 -0.514755
v 0.046932 0.390460 -0.514755
v -0.043125 -0.387041 0.513613
v -0.043125 -0.296984 0.513613
v -0.043125 -0.387041 -0.514755
v -0.043125 -0.296984 -0.514755
v 0.046932 -0.387041 0.513613
v 0.046932 -0.296984 0.513613
v 0.046932 -0.387041 -0.514755
v 0.046932 -0.296984 -0.514755
v -0.041067 -0.343249 -0.515100
v -0.041067 -0.343249 -0.455973
v -0.041067 0.331919 -0.515100
v -0.041067 0.331919 -0.455973
v 0.035356 -0.343249 -0.515100
v 0.035356 -0.343249 -0.455973
v 0.035356 0.331919 -0.515100
v 0.035356 0.331919 -0.455973
vn -1.0000 -0.0000 -0.0000
vn 1.0000 -0.0000 -0.0000
vn -0.0000 -0.0000 -1.0000
vn -0.0000 -0.0000 1.0000
vn -0.0000 1.0000 -0.0000
vn -0.0000 -1.0000 -0.0000
vt 0.375000 0.000000
vt 0.125000 0.750000
vt 0.625000 0.000000
vt 0.875000 0.750000
vt 0.375000 0.250000
vt 0.125000 0.500000
vt 0.625000 0.250000
vt 0.875000 0.500000
vt 0.375000 0.750000
vt 0.625000 0.750000
vt 0.375000 0.500000
vt 0.625000 0.500000
vt 0.625000 0.500000
vt 0.375000 0.500000
vt 0.625000 0.750000
vt 0.375000 0.750000
vt 0.625000 0.250000
vt 0.875000 0.500000
vt 0.125000 0.500000
vt 0.375000 0.250000
vt 0.625000 0.000000
vt 0.875000 0.750000
vt 0.375000 0.000000
vt 0.125000 0.750000
vt 0.375000 0.000000
vt 0.375000 1.000000
vt 0.125000 0.750000
vt 0.625000 0.000000
vt 0.625000 1.000000
vt 0.875000 0.750000
vt 0.375000 0.250000
vt 0.125000 0.500000
vt 0.625000 0.250000
vt 0.875000 0.500000
vt 0.375000 0.750000
vt 0.625000 0.750000
vt 0.375000 0.500000
vt 0.625000 0.500000
vt 0.375000 0.000000
vt 0.375000 1.000000
vt 0.125000 0.750000
vt 0.625000 0.000000
vt 0.625000 1.000000
vt 0.875000 0.750000
vt 0.375000 0.250000
vt 0.125000 0.500000
vt 0.625000 0.250000
vt 0.875000 0.500000
vt 0.375000 0.750000
vt 0.625000 0.750000
vt 0.375000 0.500000
vt 0.625000 0.500000
vt 0.375000 0.000000
vt 0.125000 0.750000
vt 0.625000 0.000000
vt 0.875000 0.750000
vt 0.375000 0.250000
vt 0.125000 0.500000
vt 0.625000 0.250000
vt 0.875000 0.500000
vt 0.375000 0.750000
vt 0.625000 0.750000
vt 0.375000 0.500000
vt 0.625000 0.500000
s 0
usemtl Material.036
f 1/1/1 2/3/1 4/7/1 3/5/1
f 7/11/2 8/12/2 6/10/2 5/9/2
f 3/6/3 7/11/3 5/9/3 1/2/3
f 8/12/4 4/8/4 2/4/4 6/10/4
f 9/13/5 13/18/5 15/22/5 11/15/5
f 16/23/1 15/21/1 13/17/1 14/20/1
f 14/19/6 10/14/6 12/16/6 16/24/6
f 10/14/2 9/13/2 11/15/2 12/16/2
f 10/14/3 14/20/3 13/18/3 9/13/3
f 16/24/4 12/16/4 11/15/4 15/22/4
f 17/25/1 18/28/1 20/33/1 19/31/1
f 19/31/3 20/33/3 24/38/3 23/37/3
f 23/37/2 24/38/2 22/36/2 21/35/2
f 21/35/4 22/36/4 18/29/4 17/26/4
f 19/32/6 23/37/6 21/35/6 17/27/6
f 24/38/5 20/34/5 18/30/5 22/36/5
f 25/39/1 26/42/1 28/47/1 27/45/1
f 27/45/3 28/47/3 32/52/3 31/51/3
f 31/51/2 32/52/2 30/50/2 29/49/2
f 29/49/4 30/50/4 26/43/4 25/40/4
f 27/46/6 31/51/6 29/49/6 25/41/6
f 32/52/5 28/48/5 26/44/5 30/50/5
f 33/53/1 34/55/1 36/59/1 35/57/1
f 39/63/2 40/64/2 38/62/2 37/61/2
f 35/58/3 39/63/3 37/61/3 33/54/3
f 40/64/4 36/60/4 34/56/4 38/62/4
