# Blender 3.5.1
# www.blender.org
mtllib Parede de pedra 1_4.mtl
o Cube.014
v 0.027935 1.000000 -0.250000
v 0.027935 -1.000000 -0.250000
v 0.027935 1.000000 0.250000
v 0.027935 -1.000000 0.250000
v -0.027935 1.000000 -0.250000
v -0.027935 -1.000000 -0.250000
v -0.027935 1.000000 0.250000
v -0.027935 -1.000000 0.250000
vn -0.0000 1.0000 -0.0000
vn -0.0000 -0.0000 1.0000
vn -1.0000 -0.0000 -0.0000
vn -0.0000 -1.0000 -0.0000
vn 1.0000 -0.0000 -0.0000
vn -0.0000 -0.0000 -1.0000
vt 0.621425 0.998884
vt 0.285624 0.619168
vt 0.622867 -0.018352
vt 0.476040 0.404792
vt 0.190416 0.428752
vt 0.169653 0.997443
vt 0.380832 0.214376
vt 0.171095 -0.019794
vt 0.095208 0.833544
vt 0.164786 0.989634
vt 0.380832 0.809584
vt 0.166228 -0.027602
vt 0.666456 0.190416
vt 0.571248 0.595208
vt 0.000000 0.643128
vt 0.095208 0.238336
vt 0.616558 0.991076
vt 0.285624 0.023960
vt 0.618000 -0.026161
vt 0.571248 0.000000
s 0
usemtl Material.029
f 1/2/1 5/9/1 7/15/1 3/5/1
f 4/7/2 3/5/2 7/16/2 8/18/2
f 8/19/3 7/17/3 5/10/3 6/12/3
f 6/13/4 2/4/4 4/7/4 8/20/4
f 2/3/5 1/1/5 3/6/5 4/8/5
f 6/14/6 5/11/6 1/2/6 2/4/6
