# Blender 3.5.1
# www.blender.org
mtllib Parede de pedra.mtl
o Cube
v 0.027935 1.000000 -1.000000
v 0.027935 -1.000000 -1.000000
v 0.027935 1.000000 1.000000
v 0.027935 -1.000000 1.000000
v -0.027935 1.000000 -1.000000
v -0.027935 -1.000000 -1.000000
v -0.027935 1.000000 1.000000
v -0.027935 -1.000000 1.000000
vn -0.0000 1.0000 -0.0000
vn -0.0000 -0.0000 1.0000
vn -1.0000 -0.0000 -0.0000
vn -0.0000 -1.0000 -0.0000
vn 1.0000 -0.0000 -0.0000
vn -0.0000 -0.0000 -1.0000
vt 0.002669 1.004162
vt 0.185754 1.242157
vt -0.001593 -0.000145
vt 0.183109 -0.229751
vt 0.811725 1.237751
vt 0.996277 1.000181
vt 0.813906 -0.226899
vt 0.997394 0.000050
vt -0.001593 -0.000145
vt 0.002669 1.004162
vt 0.805746 1.234008
vt -0.001593 -0.000145
vt 0.002669 1.004162
vt 0.808864 -0.233819
vt 0.997394 0.000050
vt 0.181288 1.235982
vt 0.996277 1.000181
vt 0.180062 -0.234826
vt 0.997394 0.000050
vt 0.996277 1.000181
s 0
usemtl Material.002
f 1/1/1 5/9/1 7/15/1 3/6/1
f 4/7/2 3/5/2 7/16/2 8/18/2
f 8/19/3 7/17/3 5/10/3 6/12/3
f 6/13/4 2/3/4 4/8/4 8/20/4
f 2/3/5 1/1/5 3/6/5 4/8/5
f 6/14/6 5/11/6 1/2/6 2/4/6
