# Blender 3.5.1
# www.blender.org
mtllib Porta de madeira escura.mtl
o Cube.001
v -0.041067 -0.872229 0.457687
v -0.041067 -0.872229 0.516813
v -0.041067 0.843440 0.457687
v -0.041067 0.843440 0.516813
v 0.035356 -0.872229 0.457687
v 0.035356 -0.872229 0.516813
v 0.035356 0.843440 0.457687
v 0.035356 0.843440 0.516813
v 0.029838 0.973013 -0.500571
v 0.029838 -0.932810 -0.500571
v 0.029838 0.973013 0.499429
v 0.029838 -0.932809 0.499429
v -0.026032 0.973013 -0.500571
v -0.026032 -0.932810 -0.500571
v -0.026032 0.973013 0.499429
v -0.026032 -0.932809 0.499429
v -0.043125 0.763352 0.513613
v -0.043125 0.992196 0.513613
v -0.043125 0.763352 -0.514755
v -0.043125 0.992196 -0.514755
v 0.046932 0.763352 0.513613
v 0.046932 0.992196 0.513613
v 0.046932 0.763352 -0.514755
v 0.046932 0.992196 -0.514755
v -0.043125 -0.983509 0.513613
v -0.043125 -0.754665 0.513613
v -0.043125 -0.983509 -0.514755
v -0.043125 -0.754665 -0.514755
v 0.046932 -0.983509 0.513613
v 0.046932 -0.754665 0.513613
v 0.046932 -0.983509 -0.514755
v 0.046932 -0.754665 -0.514755
v -0.041067 -0.872229 -0.515100
v -0.041067 -0.872229 -0.455973
v -0.041067 0.843439 -0.515100
v -0.041067 0.843439 -0.455973
v 0.035356 -0.872229 -0.515100
v 0.035356 -0.872229 -0.455973
v 0.035356 0.843439 -0.515100
v 0.035356 0.843439 -0.455973
v -0.041893 -0.834404 -0.400684
v -0.041893 0.797694 0.469535
v -0.041893 -0.797694 -0.469535
v -0.041893 0.834404 0.400684
v 0.040623 -0.834404 -0.400684
v 0.040623 0.797694 0.469535
v 0.040623 -0.797694 -0.469535
v 0.040623 0.834404 0.400684
v -0.041893 -0.798821 0.467614
v -0.041893 0.835366 -0.398675
v -0.041893 -0.835366 0.398675
v -0.041893 0.798821 -0.467614
v 0.040623 -0.798821 0.467614
v 0.040623 0.835366 -0.398675
v 0.040623 -0.835366 0.398675
v 0.040623 0.798821 -0.467614
v -0.040717 -0.035606 -0.360428
v -0.040717 -0.016379 -0.341200
v -0.088516 -0.016379 -0.360428
v -0.040717 0.016379 -0.341200
v -0.040717 0.035606 -0.360428
v -0.088516 0.016379 -0.360428
v -0.040717 -0.035606 -0.393185
v -0.088516 -0.016379 -0.393185
v -0.040717 -0.016379 -0.412412
v -0.040717 0.035606 -0.393185
v -0.040717 0.016379 -0.412412
v -0.088516 0.016379 -0.393185
v 0.040717 -0.035606 -0.360428
v 0.088516 -0.016379 -0.360428
v 0.040717 -0.016379 -0.341200
v 0.040717 0.035606 -0.360428
v 0.040717 0.016379 -0.341200
v 0.088516 0.016379 -0.360428
v 0.040717 -0.035606 -0.393185
v 0.040717 -0.016379 -0.412412
v 0.088516 -0.016379 -0.393185
v 0.040717 0.035606 -0.393185
v 0.088516 0.016379 -0.393185
v 0.040717 0.016379 -0.412412
vn -1.0000 -0.0000 -0.0000
vn 1.0000 -0.0000 -0.0000
vn -0.0000 -0.0000 -1.0000
vn -0.0000 -0.0000 1.0000
vn -0.0000 1.0000 -0.0000
vn -0.0000 -1.0000 -0.0000
vn -0.0000 0.4705 -0.8824
vn -0.0000 -0.4705 0.8824
vn -0.0000 -0.4684 -0.8835
vn -0.0000 0.4684 0.8835
vn -0.2736 -0.6801 0.6801
vn -0.2736 0.6801 0.6801
vn -0.2736 -0.6801 -0.6801
vn -0.2736 0.6801 -0.6801
vn 0.2736 -0.6801 0.6801
vn 0.2736 0.6801 0.6801
vn 0.2736 -0.6801 -0.6801
vn 0.2736 0.6801 -0.6801
vn -0.3732 -0.9278 -0.0000
vn -0.3732 -0.0000 0.9278
vn -0.3732 0.9278 -0.0000
vn -0.3732 -0.0000 -0.9278
vn -0.0000 -0.7071 -0.7071
vn -0.0000 0.7071 -0.7071
vn 0.3732 -0.0000 -0.9278
vn 0.3732 -0.9278 -0.0000
vn 0.3732 0.9278 -0.0000
vn 0.3732 -0.0000 0.9278
vn -0.0000 -0.7071 0.7071
vn -0.0000 0.7071 0.7071
vt 0.375000 0.000000
vt 0.125000 0.750000
vt 0.625000 0.000000
vt 0.875000 0.750000
vt 0.375000 0.250000
vt 0.125000 0.500000
vt 0.625000 0.250000
vt 0.875000 0.500000
vt 0.375000 0.750000
vt 0.625000 0.750000
vt 0.375000 0.500000
vt 0.625000 0.500000
vt 0.625000 0.500000
vt 0.375000 0.500000
vt 0.625000 0.750000
vt 0.375000 0.750000
vt 0.625000 0.250000
vt 0.875000 0.500000
vt 0.125000 0.500000
vt 0.375000 0.250000
vt 0.625000 0.000000
vt 0.875000 0.750000
vt 0.375000 0.000000
vt 0.125000 0.750000
vt 0.375000 0.000000
vt 0.375000 1.000000
vt 0.125000 0.750000
vt 0.625000 0.000000
vt 0.625000 1.000000
vt 0.875000 0.750000
vt 0.375000 0.250000
vt 0.125000 0.500000
vt 0.625000 0.250000
vt 0.875000 0.500000
vt 0.375000 0.750000
vt 0.625000 0.750000
vt 0.375000 0.500000
vt 0.625000 0.500000
vt 0.375000 0.000000
vt 0.375000 1.000000
vt 0.125000 0.750000
vt 0.625000 0.000000
vt 0.625000 1.000000
vt 0.875000 0.750000
vt 0.375000 0.250000
vt 0.125000 0.500000
vt 0.625000 0.250000
vt 0.875000 0.500000
vt 0.375000 0.750000
vt 0.625000 0.750000
vt 0.375000 0.500000
vt 0.625000 0.500000
vt 0.375000 0.000000
vt 0.125000 0.750000
vt 0.625000 0.000000
vt 0.875000 0.750000
vt 0.375000 0.250000
vt 0.125000 0.500000
vt 0.625000 0.250000
vt 0.875000 0.500000
vt 0.375000 0.750000
vt 0.625000 0.750000
vt 0.375000 0.500000
vt 0.625000 0.500000
vt 0.375000 0.000000
vt 0.375000 1.000000
vt 0.625000 0.000000
vt 0.625000 1.000000
vt 0.375000 0.250000
vt 0.625000 0.250000
vt 0.375000 0.750000
vt 0.625000 0.750000
vt 0.375000 0.500000
vt 0.625000 0.500000
vt 0.375000 0.000000
vt 0.375000 1.000000
vt 0.625000 0.000000
vt 0.625000 1.000000
vt 0.375000 0.250000
vt 0.625000 0.250000
vt 0.375000 0.750000
vt 0.625000 0.750000
vt 0.375000 0.500000
vt 0.625000 0.500000
vt 0.192500 0.682500
vt 0.442500 0.932500
vt 0.442500 0.000000
vt 0.192500 0.750000
vt 0.125000 0.682500
vt 0.442500 0.067500
vt 0.557500 0.000000
vt 0.557500 0.932500
vt 0.807500 0.682500
vt 0.625000 0.067500
vt 0.625000 0.932500
vt 0.557500 0.067500
vt 0.192500 0.567500
vt 0.125000 0.567500
vt 0.442500 0.182500
vt 0.442500 0.317500
vt 0.192500 0.500000
vt 0.807500 0.567500
vt 0.625000 0.182500
vt 0.625000 0.317500
vt 0.557500 0.250000
vt 0.557500 0.317500
vt 0.557500 0.182500
vt 0.307500 0.682500
vt 0.375000 0.682500
vt 0.442500 0.682500
vt 0.442500 0.817500
vt 0.307500 0.750000
vt 0.692500 0.682500
vt 0.625000 0.817500
vt 0.557500 0.817500
vt 0.557500 0.750000
vt 0.557500 0.682500
vt 0.307500 0.567500
vt 0.307500 0.500000
vt 0.442500 0.432500
vt 0.375000 0.567500
vt 0.442500 0.567500
vt 0.625000 0.432500
vt 0.692500 0.567500
vt 0.557500 0.500000
vt 0.557500 0.567500
vt 0.557500 0.432500
s 0
usemtl Material.034
f 1/1/1 2/3/1 4/7/1 3/5/1
f 7/11/2 8/12/2 6/10/2 5/9/2
f 3/6/3 7/11/3 5/9/3 1/2/3
f 8/12/4 4/8/4 2/4/4 6/10/4
f 9/13/5 13/18/5 15/22/5 11/15/5
f 16/23/1 15/21/1 13/17/1 14/20/1
f 14/19/6 10/14/6 12/16/6 16/24/6
f 10/14/2 9/13/2 11/15/2 12/16/2
f 10/14/3 14/20/3 13/18/3 9/13/3
f 16/24/4 12/16/4 11/15/4 15/22/4
f 17/25/1 18/28/1 20/33/1 19/31/1
f 19/31/3 20/33/3 24/38/3 23/37/3
f 23/37/2 24/38/2 22/36/2 21/35/2
f 21/35/4 22/36/4 18/29/4 17/26/4
f 19/32/6 23/37/6 21/35/6 17/27/6
f 24/38/5 20/34/5 18/30/5 22/36/5
f 25/39/1 26/42/1 28/47/1 27/45/1
f 27/45/3 28/47/3 32/52/3 31/51/3
f 31/51/2 32/52/2 30/50/2 29/49/2
f 29/49/4 30/50/4 26/43/4 25/40/4
f 27/46/6 31/51/6 29/49/6 25/41/6
f 32/52/5 28/48/5 26/44/5 30/50/5
f 33/53/1 34/55/1 36/59/1 35/57/1
f 39/63/2 40/64/2 38/62/2 37/61/2
f 35/58/3 39/63/3 37/61/3 33/54/3
f 40/64/4 36/60/4 34/56/4 38/62/4
f 41/65/1 42/67/1 44/70/1 43/69/1
f 43/69/7 44/70/7 48/74/7 47/73/7
f 47/73/2 48/74/2 46/72/2 45/71/2
f 45/71/8 46/72/8 42/68/8 41/66/8
f 49/75/1 50/77/1 52/80/1 51/79/1
f 51/79/9 52/80/9 56/84/9 55/83/9
f 55/83/2 56/84/2 54/82/2 53/81/2
f 53/81/10 54/82/10 50/78/10 49/76/10
f 71/111/4 73/115/4 60/92/4 58/86/4
f 77/122/2 79/126/2 74/117/2 70/110/2
f 78/124/5 66/102/5 61/93/5 72/113/5
f 59/90/1 62/96/1 68/107/1 64/99/1
f 65/100/3 67/106/3 80/127/3 76/120/3
f 57/85/11 58/88/11 59/89/11
f 60/91/12 61/94/12 62/96/12
f 63/97/13 64/98/13 65/101/13
f 66/103/14 67/105/14 68/107/14
f 69/108/15 70/109/15 71/112/15
f 72/114/16 73/115/16 74/116/16
f 75/118/17 76/119/17 77/121/17
f 78/123/18 79/125/18 80/127/18
f 63/97/19 57/85/19 59/89/19 64/98/19
f 58/87/20 60/91/20 62/96/20 59/90/20
f 61/94/21 66/103/21 68/107/21 62/96/21
f 67/106/22 65/100/22 64/99/22 68/107/22
f 75/118/23 63/97/23 65/101/23 76/119/23
f 66/104/24 78/123/24 80/127/24 67/106/24
f 79/126/25 77/122/25 76/120/25 80/127/25
f 69/108/26 75/118/26 77/122/26 70/110/26
f 78/124/27 72/113/27 74/117/27 79/126/27
f 73/115/28 71/111/28 70/110/28 74/117/28
f 57/85/29 69/108/29 71/112/29 58/88/29
f 72/114/30 61/95/30 60/92/30 73/115/30
f 63/97/6 75/118/6 69/108/6 57/85/6
